<svg xmlns="http://www.w3.org/2000/svg" viewBox="0 0 60 40"><rect width="60" height="40" fill="#DE2910"/><g fill="#FFDE00"><path transform="translate(12,11) scale(7)" d="M0,-1L0.2245,-0.309L0.951,-0.309L0.363,0.118L0.5878,0.809L0,0.382L-0.5878,0.809L-0.363,0.118L-0.951,-0.309L-0.2245,-0.309Z"/><path transform="translate(25,5) scale(2.3)" d="M0,-1L0.2245,-0.309L0.951,-0.309L0.363,0.118L0.5878,0.809L0,0.382L-0.5878,0.809L-0.363,0.118L-0.951,-0.309L-0.2245,-0.309Z"/><path transform="translate(30,10) scale(2.3)" d="M0,-1L0.2245,-0.309L0.951,-0.309L0.363,0.118L0.5878,0.809L0,0.382L-0.5878,0.809L-0.363,0.118L-0.951,-0.309L-0.2245,-0.309Z"/><path transform="translate(30,17) scale(2.3)" d="M0,-1L0.2245,-0.309L0.951,-0.309L0.363,0.118L0.5878,0.809L0,0.382L-0.5878,0.809L-0.363,0.118L-0.951,-0.309L-0.2245,-0.309Z"/><path transform="translate(25,22) scale(2.3)" d="M0,-1L0.2245,-0.309L0.951,-0.309L0.363,0.118L0.5878,0.809L0,0.382L-0.5878,0.809L-0.363,0.118L-0.951,-0.309L-0.2245,-0.309Z"/></g></svg>
